<svg xmlns="http://www.w3.org/2000/svg" width="60" height="57" viewBox="0 0 60 57" fill="none"><path d="M52.6614 10.6382L48.88 6.80191L44.0795 11.6993L47.8609 15.5356L52.6614 10.6382ZM32.6818 8.16229L27.3182 8.16229V0L32.6818 0V8.16229ZM59.5 32.6492H51.4545V27.2076H59.5L59.5 32.6492ZM27.3182 51.5585V40.7842L24.6364 39.2062C21.3109 37.2473 19.2727 33.6558 19.2727 29.7924C19.2727 23.7795 24.0732 18.9093 30 18.9093C35.9268 18.9093 40.7273 23.7795 40.7273 29.7924C40.7273 33.6558 38.6623 37.2473 35.3636 39.2062L32.6818 40.7842V51.5585H27.3182ZM21.9545 57L38.0455 57V43.9131C42.8459 41.0835 46.0909 35.8325 46.0909 29.7924C46.0909 20.7866 38.8768 13.4678 30 13.4678C21.1232 13.4678 13.9091 20.7866 13.9091 29.7924C13.9091 35.8325 17.1541 41.0835 21.9545 43.9131V57ZM8.54545 32.6492H0.5L0.5 27.2076H8.54545L8.54545 32.6492ZM15.9473 11.6721L11.1468 6.7747L7.36545 10.611L12.1927 15.4811L15.9473 11.6721Z" fill="#BF9A5E"></path></svg>